<?xml version="1.0" encoding="UTF-8" standalone="no"?>
<svg
   xmlns:dc="http://purl.org/dc/elements/1.1/"
   xmlns:cc="http://creativecommons.org/ns#"
   xmlns:rdf="http://www.w3.org/1999/02/22-rdf-syntax-ns#"
   xmlns:svg="http://www.w3.org/2000/svg"
   xmlns="http://www.w3.org/2000/svg"
   xmlns:sodipodi="http://sodipodi.sourceforge.net/DTD/sodipodi-0.dtd"
   xmlns:inkscape="http://www.inkscape.org/namespaces/inkscape"
   id="svg19"
   version="1.1"
   viewBox="0 0 128 128"
   height="128pt"
   width="128pt"
   sodipodi:docname="default-image.svg"
   inkscape:version="0.92.5 (2060ec1f9f, 2020-04-08)">
  <sodipodi:namedview
     pagecolor="#ffffff"
     bordercolor="#666666"
     borderopacity="1"
     objecttolerance="10"
     gridtolerance="10"
     guidetolerance="10"
     inkscape:pageopacity="0"
     inkscape:pageshadow="2"
     inkscape:window-width="2560"
     inkscape:window-height="1016"
     id="namedview14"
     showgrid="false"
     inkscape:zoom="1.3828125"
     inkscape:cx="85.333333"
     inkscape:cy="85.333333"
     inkscape:window-x="1920"
     inkscape:window-y="28"
     inkscape:window-maximized="1"
     inkscape:current-layer="svg19" />
  <metadata
     id="metadata25">
    <rdf:RDF>
      <cc:Work
         rdf:about="">
        <dc:format>image/svg+xml</dc:format>
        <dc:type
           rdf:resource="http://purl.org/dc/dcmitype/StillImage" />
        <dc:title />
      </cc:Work>
    </rdf:RDF>
  </metadata>
  <defs
     id="defs23" />
  <g
     style="fill:#b3b3b3;fill-opacity:1"
     id="#18acd9ff">
    <path
       style="fill:#b3b3b3;fill-opacity:1"
       id="path2"
       d=" M 60.14 32.02 C 67.29 31.51 74.56 32.86 80.84 36.40 C 80.85 41.80 80.79 47.21 80.66 52.61 C 73.84 45.73 66.91 38.94 60.14 32.02 Z"
       opacity="1.00"
       fill="#18acd9" />
    <path
       style="fill:#b3b3b3;fill-opacity:1"
       id="path4"
       d=" M 38.60 44.25 C 43.19 38.77 49.37 34.68 56.25 32.70 C 60.10 36.53 63.94 40.38 67.73 44.27 C 58.02 44.31 48.31 44.34 38.60 44.25 Z"
       opacity="1.00"
       fill="#18acd9" />
    <path
       style="fill:#b3b3b3;fill-opacity:1"
       id="path6"
       d=" M 83.99 38.68 C 89.52 43.25 93.61 49.47 95.59 56.37 C 91.71 60.19 87.92 64.09 83.98 67.84 C 83.95 58.12 83.93 48.40 83.99 38.68 Z"
       opacity="1.00"
       fill="#18acd9" />
    <path
       style="fill:#b3b3b3;fill-opacity:1"
       id="path8"
       d=" M 36.43 47.35 C 41.84 47.31 47.25 47.35 52.66 47.40 C 45.81 54.32 38.93 61.20 32.02 68.05 C 31.58 60.91 32.83 53.59 36.43 47.35 Z"
       opacity="1.00"
       fill="#18acd9" />
    <path
       style="fill:#b3b3b3;fill-opacity:1"
       id="path10"
       d=" M 32.55 71.91 C 36.39 68.12 40.21 64.30 44.04 60.49 C 44.05 70.18 44.08 79.87 44.02 89.56 C 38.60 84.93 34.47 78.80 32.55 71.91 Z"
       opacity="1.00"
       fill="#18acd9" />
    <path
       style="fill:#b3b3b3;fill-opacity:1"
       id="path12"
       d=" M 75.67 80.65 C 82.45 73.90 89.23 67.13 95.98 60.35 C 96.52 67.43 95.55 74.71 91.83 80.89 C 86.45 80.79 81.06 80.81 75.67 80.65 Z"
       opacity="1.00"
       fill="#18acd9" />
    <path
       style="fill:#b3b3b3;fill-opacity:1"
       id="path14"
       d=" M 47.31 75.59 C 54.18 82.33 60.94 89.19 67.76 95.99 C 60.68 96.53 53.42 95.57 47.27 91.82 C 47.31 86.41 47.28 81.00 47.31 75.59 Z"
       opacity="1.00"
       fill="#18acd9" />
    <path
       style="fill:#b3b3b3;fill-opacity:1"
       id="path16"
       d=" M 60.35 83.98 C 70.07 83.95 79.80 83.93 89.52 83.99 C 84.95 89.51 78.74 93.60 71.85 95.58 C 68.02 91.71 64.12 87.91 60.35 83.98 Z"
       opacity="1.00"
       fill="#18acd9" />
  </g>
</svg>
