<?xml version="1.0" encoding="UTF-8" standalone="no"?>
<svg
   xmlns:dc="http://purl.org/dc/elements/1.1/"
   xmlns:cc="http://creativecommons.org/ns#"
   xmlns:rdf="http://www.w3.org/1999/02/22-rdf-syntax-ns#"
   xmlns:svg="http://www.w3.org/2000/svg"
   xmlns="http://www.w3.org/2000/svg"
   xmlns:sodipodi="http://sodipodi.sourceforge.net/DTD/sodipodi-0.dtd"
   xmlns:inkscape="http://www.inkscape.org/namespaces/inkscape"
   width="128pt"
   height="128pt"
   viewBox="0 0 128 128"
   version="1.1"
   id="svg5"
   sodipodi:docname="default-video.svg"
   inkscape:version="0.92.5 (2060ec1f9f, 2020-04-08)">
  <metadata
     id="metadata11">
    <rdf:RDF>
      <cc:Work
         rdf:about="">
        <dc:format>image/svg+xml</dc:format>
        <dc:type
           rdf:resource="http://purl.org/dc/dcmitype/StillImage" />
        <dc:title></dc:title>
      </cc:Work>
    </rdf:RDF>
  </metadata>
  <defs
     id="defs9" />
  <sodipodi:namedview
     pagecolor="#ffffff"
     bordercolor="#666666"
     borderopacity="1"
     objecttolerance="10"
     gridtolerance="10"
     guidetolerance="10"
     inkscape:pageopacity="0"
     inkscape:pageshadow="2"
     inkscape:window-width="2560"
     inkscape:window-height="1016"
     id="namedview7"
     showgrid="false"
     inkscape:zoom="1.3828125"
     inkscape:cx="85.333333"
     inkscape:cy="85.333333"
     inkscape:window-x="0"
     inkscape:window-y="28"
     inkscape:window-maximized="1"
     inkscape:current-layer="svg5" />
  <g
     id="#18acd9ff"
     style="fill:#b3b3b3;fill-opacity:1">
    <path
       fill="#18acd9"
       opacity="1.00"
       d=" M 32.01 40.27 C 33.51 40.28 35.01 40.29 36.52 40.29 C 36.53 41.53 36.54 42.78 36.54 44.02 C 39.13 44.03 41.71 44.03 44.29 44.02 C 44.30 42.78 44.30 41.53 44.30 40.29 C 45.55 40.28 46.81 40.28 48.06 40.28 C 48.07 42.49 48.07 44.70 48.07 46.92 C 58.77 46.92 69.46 46.93 80.16 46.92 C 80.17 44.70 80.17 42.49 80.17 40.28 C 81.69 40.29 83.20 40.29 84.72 40.29 C 84.72 41.53 84.73 42.78 84.74 44.02 C 87.31 44.03 89.89 44.03 92.46 44.02 C 92.47 42.78 92.47 41.53 92.48 40.29 C 93.36 40.28 95.11 40.28 95.99 40.27 C 96.01 56.18 96.00 72.09 95.99 88.00 C 94.74 87.99 93.49 87.98 92.25 87.98 C 92.24 86.72 92.23 85.47 92.22 84.22 C 89.67 84.21 87.12 84.21 84.57 84.21 C 84.56 85.47 84.56 86.73 84.56 87.98 C 83.09 87.98 81.63 87.98 80.17 87.99 C 80.17 85.98 80.17 83.97 80.16 81.97 C 69.46 81.96 58.77 81.97 48.07 81.96 C 48.07 83.97 48.07 85.98 48.06 87.99 C 46.72 87.99 45.38 87.98 44.04 87.98 C 44.03 86.72 44.02 85.47 44.02 84.22 C 41.43 84.21 38.85 84.21 36.27 84.22 C 36.27 85.47 36.26 86.73 36.26 87.98 C 34.84 87.99 33.42 87.99 32.00 87.99 C 32.00 72.09 31.99 56.18 32.01 40.27 M 36.53 50.43 C 36.53 52.16 36.52 53.89 36.52 55.62 C 39.08 55.63 41.64 55.62 44.19 55.61 C 44.19 53.89 44.19 52.16 44.20 50.43 C 41.64 50.42 39.08 50.42 36.53 50.43 M 84.73 50.43 C 84.73 52.16 84.73 53.89 84.73 55.61 C 87.31 55.62 89.89 55.63 92.47 55.61 C 92.47 53.89 92.47 52.16 92.47 50.43 C 89.89 50.42 87.31 50.42 84.73 50.43 M 48.07 51.83 C 48.06 60.28 48.06 68.73 48.07 77.18 C 58.77 77.18 69.46 77.18 80.16 77.17 C 80.17 68.73 80.17 60.28 80.16 51.83 C 69.46 51.82 58.77 51.82 48.07 51.83 M 36.52 61.36 C 36.52 63.12 36.52 64.87 36.52 66.62 C 39.08 66.63 41.64 66.63 44.20 66.62 C 44.19 64.87 44.19 63.12 44.20 61.37 C 41.64 61.36 39.08 61.36 36.52 61.36 M 84.73 61.37 C 84.73 63.12 84.73 64.87 84.73 66.62 C 87.31 66.63 89.89 66.63 92.47 66.62 C 92.47 64.87 92.47 63.12 92.47 61.37 C 89.89 61.36 87.31 61.36 84.73 61.37 M 36.52 72.41 C 36.52 74.16 36.52 75.92 36.52 77.67 C 39.08 77.68 41.63 77.68 44.19 77.67 C 44.19 75.92 44.20 74.16 44.20 72.41 C 41.64 72.40 39.08 72.40 36.52 72.41 M 84.73 72.41 C 84.73 74.17 84.73 75.92 84.74 77.67 C 87.31 77.68 89.89 77.68 92.47 77.67 C 92.47 75.92 92.47 74.16 92.47 72.41 C 89.89 72.40 87.31 72.40 84.73 72.41 Z"
       id="path2"
       style="fill:#b3b3b3;fill-opacity:1" />
  </g>
</svg>
