<?xml version="1.0" encoding="UTF-8" standalone="no"?>
<svg
   xmlns:dc="http://purl.org/dc/elements/1.1/"
   xmlns:cc="http://creativecommons.org/ns#"
   xmlns:rdf="http://www.w3.org/1999/02/22-rdf-syntax-ns#"
   xmlns:svg="http://www.w3.org/2000/svg"
   xmlns="http://www.w3.org/2000/svg"
   id="svg19"
   version="1.1"
   viewBox="0 0 128 128"
   height="128pt"
   width="128pt">
  <metadata
     id="metadata25">
    <rdf:RDF>
      <cc:Work
         rdf:about="">
        <dc:format>image/svg+xml</dc:format>
        <dc:type
           rdf:resource="http://purl.org/dc/dcmitype/StillImage" />
        <dc:title></dc:title>
      </cc:Work>
    </rdf:RDF>
  </metadata>
  <defs
     id="defs23" />
  <g
     style="fill:#b3b3b3;fill-opacity:1"
     id="#18acd9ff">
    <path
       style="fill:#b3b3b3;fill-opacity:1"
       id="path2"
       d=" M 35.76 33.02 C 37.08 31.46 39.30 32.02 41.08 32.12 C 46.74 33.07 52.49 34.56 57.25 37.89 C 55.86 39.76 55.27 41.91 56.04 44.17 C 50.21 44.46 44.17 45.14 38.49 43.47 C 36.38 42.92 37.06 40.48 37.12 38.90 C 37.40 36.82 36.11 35.01 35.76 33.02 Z"
       opacity="1.00"
       fill="#18acd9" />
    <path
       style="fill:#b3b3b3;fill-opacity:1"
       id="path4"
       d=" M 82.44 33.62 C 85.55 32.66 89.12 31.03 92.18 33.03 C 90.13 35.98 90.87 39.48 92.82 42.27 C 90.33 43.14 87.70 43.50 85.09 43.80 C 80.85 44.25 76.67 45.53 72.37 45.18 C 73.04 42.84 72.19 40.73 70.74 38.91 C 74.19 36.27 78.43 35.11 82.44 33.62 Z"
       opacity="1.00"
       fill="#18acd9" />
    <path
       style="fill:#b3b3b3;fill-opacity:1"
       id="path6"
       d=" M 61.45 38.61 C 65.03 37.05 71.18 39.25 70.08 43.94 C 68.07 48.59 60.02 48.53 58.17 43.79 C 57.47 41.46 59.36 39.31 61.45 38.61 Z"
       opacity="1.00"
       fill="#18acd9" />
    <path
       style="fill:#b3b3b3;fill-opacity:1"
       id="path8"
       d=" M 36.26 48.40 C 44.29 48.12 52.33 48.39 60.37 48.29 C 60.39 51.95 60.39 55.62 60.38 59.28 C 52.25 59.17 44.09 59.52 35.97 59.12 C 33.57 58.67 34.39 55.70 34.20 53.98 C 34.42 52.08 33.47 48.66 36.26 48.40 Z"
       opacity="1.00"
       fill="#18acd9" />
    <path
       style="fill:#b3b3b3;fill-opacity:1"
       id="path10"
       d=" M 67.89 48.29 C 75.88 48.37 83.89 48.15 91.88 48.37 C 94.71 48.49 94.01 52.04 94.16 53.96 C 94.02 55.77 94.65 59.02 91.99 59.17 C 83.96 59.47 75.92 59.19 67.89 59.28 C 67.88 55.62 67.88 51.96 67.89 48.29 Z"
       opacity="1.00"
       fill="#18acd9" />
    <path
       style="fill:#b3b3b3;fill-opacity:1"
       id="path12"
       d=" M 61.33 95.99 C 61.35 80.09 61.32 64.19 61.35 48.29 C 63.20 48.29 65.06 48.30 66.91 48.31 C 66.90 64.20 66.90 80.10 66.91 96.00 C 65.05 96.00 63.19 95.99 61.33 95.99 Z"
       opacity="1.00"
       fill="#18acd9" />
    <path
       style="fill:#b3b3b3;fill-opacity:1"
       id="path14"
       d=" M 36.85 61.65 C 44.69 61.64 52.53 61.64 60.38 61.65 C 60.39 73.10 60.38 84.55 60.38 96.00 C 53.21 95.96 46.03 96.06 38.86 95.98 C 37.12 96.32 36.83 94.31 36.87 93.09 C 36.79 82.61 36.86 72.13 36.85 61.65 Z"
       opacity="1.00"
       fill="#18acd9" />
    <path
       style="fill:#b3b3b3;fill-opacity:1"
       id="path16"
       d=" M 67.89 61.65 C 75.72 61.65 83.56 61.64 91.40 61.65 C 91.22 73.06 91.80 84.50 91.09 95.88 C 83.36 96.13 75.62 95.94 67.88 96.00 C 67.88 84.55 67.87 73.10 67.89 61.65 Z"
       opacity="1.00"
       fill="#18acd9" />
  </g>
</svg>
