<?xml version="1.0" encoding="UTF-8" standalone="no"?>
<svg
   xmlns:dc="http://purl.org/dc/elements/1.1/"
   xmlns:cc="http://creativecommons.org/ns#"
   xmlns:rdf="http://www.w3.org/1999/02/22-rdf-syntax-ns#"
   xmlns:svg="http://www.w3.org/2000/svg"
   xmlns="http://www.w3.org/2000/svg"
   id="svg7"
   version="1.1"
   viewBox="0 0 128 128"
   height="128pt"
   width="128pt">
  <metadata
     id="metadata13">
    <rdf:RDF>
      <cc:Work
         rdf:about="">
        <dc:format>image/svg+xml</dc:format>
        <dc:type
           rdf:resource="http://purl.org/dc/dcmitype/StillImage" />
        <dc:title></dc:title>
      </cc:Work>
    </rdf:RDF>
  </metadata>
  <defs
     id="defs11" />
  <g
     style="fill:#b3b3b3"
     id="#18acd9ff">
    <path
       style="fill:#b3b3b3"
       id="path2"
       d=" M 49.06 38.71 C 53.09 38.92 53.32 32.76 57.02 32.18 C 59.50 32.96 61.77 34.28 64.12 35.38 C 66.70 34.38 69.10 32.39 71.91 32.28 C 74.31 33.66 75.49 36.56 77.29 38.63 C 80.08 38.85 83.02 38.42 85.70 39.38 C 86.97 41.92 86.88 44.88 87.45 47.62 C 89.80 49.02 92.37 50.14 94.43 51.99 C 94.58 54.92 92.96 57.63 92.26 60.44 C 93.88 62.95 96.17 65.35 96.13 68.54 C 94.27 70.24 92.46 71.98 90.65 73.72 C 90.56 76.60 91.92 79.81 90.55 82.49 C 88.12 83.60 85.48 84.15 82.93 84.90 C 81.66 87.47 81.11 90.58 79.00 92.61 C 76.26 92.52 73.61 91.73 70.94 91.19 C 68.64 92.73 66.82 95.44 64.06 96.02 C 61.40 95.23 59.57 92.76 57.33 91.18 C 54.54 91.50 51.58 93.11 48.82 92.28 C 47.24 90.17 46.70 87.51 45.42 85.24 C 43.00 83.51 39.22 84.09 37.22 81.77 C 37.00 79.07 37.47 76.37 37.63 73.68 C 35.71 71.83 33.58 70.15 31.99 67.99 C 32.22 65.04 34.66 62.82 36.02 60.29 C 35.33 57.58 33.56 54.89 33.90 52.06 C 35.76 50.03 38.52 49.10 40.82 47.63 C 41.36 44.96 41.36 42.10 42.47 39.57 C 44.35 38.28 46.91 39.02 49.06 38.71 M 41.31 54.36 C 41.30 59.79 41.29 65.22 41.32 70.65 C 42.14 70.64 43.80 70.64 44.62 70.63 C 44.63 66.67 44.65 62.71 44.58 58.75 C 47.13 62.74 49.75 66.68 52.34 70.64 C 53.51 70.64 54.69 70.64 55.86 70.64 C 55.86 65.21 55.86 59.78 55.85 54.35 C 54.77 54.35 53.69 54.36 52.60 54.37 C 52.61 58.17 52.61 61.97 52.59 65.77 C 50.14 61.96 47.65 58.17 45.20 54.37 C 43.90 54.36 42.60 54.36 41.31 54.36 M 61.72 70.30 C 64.20 71.21 68.84 71.69 69.31 68.15 C 66.59 68.31 63.01 69.26 61.89 65.87 C 64.62 65.77 67.36 65.78 70.10 65.73 C 70.03 62.69 68.82 58.68 65.06 58.82 C 58.82 57.85 56.34 67.70 61.72 70.30 M 70.87 59.13 C 71.97 62.96 73.04 66.79 74.14 70.62 C 75.34 70.63 76.54 70.65 77.74 70.66 C 78.81 67.99 78.68 64.74 79.73 62.26 C 80.79 64.95 81.19 67.86 81.96 70.64 C 83.18 70.64 84.39 70.64 85.61 70.63 C 86.72 66.78 87.83 62.92 88.92 59.06 C 88.12 59.08 86.54 59.11 85.75 59.13 C 85.13 62.22 84.50 65.32 83.98 68.44 C 83.37 65.31 82.64 62.20 81.89 59.10 C 80.77 59.10 79.65 59.10 78.53 59.10 C 77.76 62.10 76.96 65.09 76.21 68.10 C 75.65 65.08 75.02 62.07 74.35 59.08 C 73.48 59.09 71.74 59.12 70.87 59.13 Z"
       opacity="1.00"
       fill="#18acd9" />
    <path
       style="fill:#b3b3b3"
       id="path4"
       d=" M 61.85 63.53 C 62.65 62.46 63.27 60.88 64.90 61.04 C 66.18 61.16 66.36 62.71 67.06 63.54 C 65.32 63.58 63.58 63.59 61.85 63.53 Z"
       opacity="1.00"
       fill="#18acd9" />
  </g>
</svg>
